<?xml version="1.0" encoding="utf-8"?>
<!-- Generator: Adobe Illustrator 24.2.0, SVG Export Plug-In . SVG Version: 6.00 Build 0)  -->
<svg version="1.1" id="图层_1" xmlns="http://www.w3.org/2000/svg" xmlns:xlink="http://www.w3.org/1999/xlink" x="0px" y="0px"
	 viewBox="0 140 700 400" style="enable-background:new 0 0 700 700;" xml:space="preserve">
<style type="text/css">
	.st0{fill:#D3E2F9;}
	.st1{fill:#00B77B;}
	.st2{fill:#00D967;}
	.st3{fill:none;stroke:#FFFFFF;stroke-width:0.4164;stroke-linecap:round;stroke-linejoin:round;stroke-miterlimit:10;}
	.st4{fill:#EBF5FF;}
	.st5{fill:#B0D8FF;}
	.st6{fill:#006DFE;}
	.st7{fill:url(#SVGID_1_);}
	.st8{fill:#FFFFFF;}
	.st9{fill:#1E2889;}
	.st10{fill:#0542BF;}
	.st11{fill:#191E56;}
	.st12{clip-path:url(#SVGID_3_);fill:#073C9B;}
	.st13{clip-path:url(#XMLID_2_);fill:#DAEBFF;}
	.st14{clip-path:url(#SVGID_5_);fill:#073C9B;}
	.st15{clip-path:url(#SVGID_7_);fill:#FE8E00;}
	.st16{fill:#D1E3FF;}
	.st17{fill:#E3EEFF;}
	.st18{fill:#F5FCFF;}
	.st19{fill:#E2EEFF;}
	.st20{fill:#7BBDFF;}
	.st21{fill:#DAEBFF;}
	.st22{fill:#054AA9;}
	.st23{fill:none;stroke:#DE4D30;stroke-width:0.4164;stroke-linecap:round;stroke-linejoin:round;stroke-miterlimit:10;}
	.st24{fill:#FFAB00;}
	.st25{fill:#EA756C;}
	.st26{clip-path:url(#SVGID_9_);fill:#181C77;}
	.st27{clip-path:url(#SVGID_11_);fill:#181C77;}
	.st28{fill:#181C77;}
	.st29{clip-path:url(#SVGID_13_);fill:#39A1FF;}
	.st30{fill:#6D6A6B;}
	.st31{fill:#3F0717;}
	.st32{fill:#894700;}
	.st33{fill:#FE8E00;}
	.st34{fill:#E57700;}
	.st35{fill:#D16D00;}
	.st36{fill:#6B3500;}
	.st37{fill:#0ACE68;}
	.st38{clip-path:url(#SVGID_15_);fill:#EA756C;}
	.st39{clip-path:url(#SVGID_17_);fill:#EA756C;}
	.st40{clip-path:url(#SVGID_19_);fill:#172272;}
	.st41{clip-path:url(#SVGID_21_);fill:#11163D;}
	.st42{clip-path:url(#SVGID_23_);fill:#EA756C;}
	.st43{clip-path:url(#SVGID_25_);fill:#EA756C;}
	.st44{clip-path:url(#SVGID_27_);fill:#EA756C;}
</style>
<g clip-path="url(#clipPath1)">
	<rect x="15.1" y="485.7" class="st0" width="683.9" height="3.9"/>
	<g>
		<path class="st1" d="M72.6,506.1c0,0-6.3,12.6-17.5,17.2s-27-1.2-35.8-8.1C10.5,508.2,1.9,498.4,1,491c-0.9-7.4,14-4.5,14-4.5
			s-6.5-8.9-9.3-15.3c-2.7-6.4,0.5-13,9.4-9.1c8.9,4,8.9,4,8.9,4s-6.9-13.9-6.7-22.6s5.2-21.7,14.9-12.5
			c9.6,9.2,10.6,28.5,10.6,28.5s2.1-8.2,5.2-14.2c3.1-6,9.4-5.2,12.3,3.1c2.9,8.4,4,20.4,4,20.4s2.8-9.2,7.4-7.8
			c4.6,1.5,7.2,12.3,6.5,22.9C77.5,494.6,72.6,506.1,72.6,506.1z"/>
		<g>
			<path class="st2" d="M70.6,483.6c0,0-0.3-45.8-35.4-62.1c0,0-16,38.4,8.3,71.4s19.4,25.3,19.4,25.3L70.6,483.6z"/>
			<line class="st3" x1="43.9" y1="442.9" x2="63.8" y2="510.9"/>
		</g>
	</g>
	<ellipse class="st4" cx="260.4" cy="537.4" rx="43.3" ry="8.9"/>
	<ellipse class="st4" cx="618.2" cy="533" rx="48" ry="8.9"/>
	<ellipse class="st4" cx="500.8" cy="528.5" rx="86.2" ry="8.9"/>
	<ellipse class="st4" cx="131.2" cy="532.8" rx="71.9" ry="6.6"/>
	<path class="st5" d="M527.1,410.3H188c-4.4,0-8-3.6-8-8V161.7c0-4.4,3.6-8,8-8h339.2c4.4,0,8,3.6,8,8v240.5
		C535.1,406.7,531.6,410.3,527.1,410.3z"/>
	<path class="st6" d="M521.6,415.2H187.9c-4.4,0-7.9-3.6-7.9-7.9V166.6c0-4.4,3.6-7.9,7.9-7.9h333.7c4.4,0,7.9,3.6,7.9,7.9v240.7
		C529.5,411.6,525.9,415.2,521.6,415.2z"/>
	<linearGradient id="SVGID_1_" gradientUnits="userSpaceOnUse" x1="353.2321" y1="111.8505" x2="355.7325" y2="404.9971">
		<stop  offset="0" style="stop-color:#B0D8FF"/>
		<stop  offset="1.537955e-02" style="stop-color:#B3D9FF"/>
		<stop  offset="0.145" style="stop-color:#C4E1FF"/>
		<stop  offset="0.3014" style="stop-color:#D1E7FF"/>
		<stop  offset="0.5117" style="stop-color:#D8EAFF"/>
		<stop  offset="1" style="stop-color:#DAEBFF"/>
	</linearGradient>
	<path class="st7" d="M511.1,404.5H198.4c-4.1,0-7.4-3.3-7.4-7.4V176.7c0-4.1,3.3-7.4,7.4-7.4h312.7c4.1,0,7.4,3.3,7.4,7.4v220.4
		C518.5,401.2,515.2,404.5,511.1,404.5z"/>
	<g>
		<g>
			<path class="st5" d="M287.3,398.9h-59c-1.7,0-3-1.3-3-3v-59c0-1.7,1.3-3,3-3h59c1.7,0,3,1.3,3,3v59
				C290.2,397.5,288.9,398.9,287.3,398.9z"/>
			<path class="st5" d="M386.5,398.9h-59c-1.7,0-3-1.3-3-3v-59c0-1.7,1.3-3,3-3h59c1.7,0,3,1.3,3,3v59
				C389.5,397.5,388.2,398.9,386.5,398.9z"/>
			<path class="st5" d="M485.8,398.9h-59c-1.7,0-3-1.3-3-3v-59c0-1.7,1.3-3,3-3h59c1.7,0,3,1.3,3,3v59
				C488.8,397.5,487.5,398.9,485.8,398.9z"/>
		</g>
	</g>
	<g>
		<path class="st8" d="M300,266.1h-80.6c-0.7,0-1.3-0.6-1.3-1.3v-3.5c0-0.7,0.6-1.3,1.3-1.3H300c0.7,0,1.3,0.6,1.3,1.3v3.5
			C301.3,265.5,300.7,266.1,300,266.1z"/>
		<path class="st8" d="M298.3,279.4h-77.1c-1.7,0-3.1-1.4-3.1-3.1l0,0c0-1.7,1.4-3.1,3.1-3.1h77.1c1.7,0,3.1,1.4,3.1,3.1l0,0
			C301.3,278,300,279.4,298.3,279.4z"/>
		<path class="st8" d="M298.3,292.6h-77.1c-1.7,0-3.1-1.4-3.1-3.1l0,0c0-1.7,1.4-3.1,3.1-3.1h77.1c1.7,0,3.1,1.4,3.1,3.1l0,0
			C301.3,291.2,300,292.6,298.3,292.6z"/>
		<path class="st8" d="M300,305.9h-80.6c-0.7,0-1.3-0.6-1.3-1.3v-3.5c0-0.7,0.6-1.3,1.3-1.3H300c0.7,0,1.3,0.6,1.3,1.3v3.5
			C301.3,305.3,300.7,305.9,300,305.9z"/>
		<path class="st8" d="M298.3,319.1h-77.1c-1.7,0-3.1-1.4-3.1-3.1l0,0c0-1.7,1.4-3.1,3.1-3.1h77.1c1.7,0,3.1,1.4,3.1,3.1l0,0
			C301.3,317.8,300,319.1,298.3,319.1z"/>
	</g>
	<g>
		<path class="st8" d="M400.7,266.1h-80.6c-0.7,0-1.3-0.6-1.3-1.3v-3.5c0-0.7,0.6-1.3,1.3-1.3h80.6c0.7,0,1.3,0.6,1.3,1.3v3.5
			C402,265.5,401.4,266.1,400.7,266.1z"/>
		<path class="st8" d="M398.9,279.4h-77.1c-1.7,0-3.1-1.4-3.1-3.1l0,0c0-1.7,1.4-3.1,3.1-3.1h77.1c1.7,0,3.1,1.4,3.1,3.1l0,0
			C402,278,400.6,279.4,398.9,279.4z"/>
		<path class="st8" d="M398.9,292.6h-77.1c-1.7,0-3.1-1.4-3.1-3.1l0,0c0-1.7,1.4-3.1,3.1-3.1h77.1c1.7,0,3.1,1.4,3.1,3.1l0,0
			C402,291.2,400.6,292.6,398.9,292.6z"/>
		<path class="st8" d="M400.7,305.9h-80.6c-0.7,0-1.3-0.6-1.3-1.3v-3.5c0-0.7,0.6-1.3,1.3-1.3h80.6c0.7,0,1.3,0.6,1.3,1.3v3.5
			C402,305.3,401.4,305.9,400.7,305.9z"/>
		<path class="st8" d="M398.9,319.1h-77.1c-1.7,0-3.1-1.4-3.1-3.1l0,0c0-1.7,1.4-3.1,3.1-3.1h77.1c1.7,0,3.1,1.4,3.1,3.1l0,0
			C402,317.8,400.6,319.1,398.9,319.1z"/>
	</g>
	<g>
		<rect x="426" y="402.3" class="st9" width="6.3" height="125.6"/>
		<rect x="570.2" y="402.3" class="st9" width="6.3" height="125.6"/>
		<rect x="414.6" y="395.3" class="st10" width="171.7" height="10"/>
	</g>
	<path class="st5" d="M243.5,356.2c0,0-1.6,14.8,16.7,9.6l1.1-10.4L243.5,356.2z"/>
	<polygon class="st9" points="295.2,310.5 313.4,310.5 300.5,365.8 277.5,365.9 	"/>
	<path class="st11" d="M229.8,505.2c0,0-2.5,2.7-4.7,4.7c-2.2,1.9-5.3,1.9-6.8,4.5c-1.4,2.6,4,9,7.4,14c3.4,5,7.8,8.2,10.7,4.7
		s-4.8-9.8-3-16.3c1.8-6.6,3.2-6.3,3.2-6.3L229.8,505.2z"/>
	<path class="st11" d="M276.7,520.9c0,0,0.1,3.7-0.2,6.6c-0.3,2.9-2.5,5.1-1.8,7.9c0.7,2.9,9.1,3.8,15,5.1c5.9,1.3,11.3,0.6,11-4
		c-0.3-4.6-10.2-3.8-13.4-9.8c-3.2-6-2-6.8-2-6.8L276.7,520.9z"/>
	<g>
		<defs>
			<path id="SVGID_2_" d="M291.1,391.3l2.2,2.5l7.1,124.1c0,0-13.1,14-32.5,0c0,0,4.3-36.1,2.7-62.2c-1.7-26,3.8-64.4,3.8-64.4
				H291.1z"/>
		</defs>
		<use xlink:href="#SVGID_2_"  style="overflow:visible;fill:#0542BF;"/>
		<clipPath id="SVGID_3_">
			<use xlink:href="#SVGID_2_"  style="overflow:visible;"/>
		</clipPath>
		<path class="st12" d="M265,493.2c0,0,8.6-1.7,14.4-16.6c5.8-14.8,8.6-15.1,9.5,2c0.9,17.1,3.5,40.1-1.7,48.2l13.3-2.8
			c0,0,10-17.1,9.7-25.8c-0.3-8.7-5.3-25.9-5.9-40.6c-0.6-14.7,0.3-21.8-1.6-35.9c-1.9-14.1-1.9-17-5.4-24.4
			c-3.5-7.5,4-12.2-3.7-12.1S278,385,276,387c-2,1.9-9.4,13.3-9.4,13.3s0.5,25.8,1.5,40.5c0.9,14.7-1,34.7-1.9,40
			C265.2,486,265,493.2,265,493.2z"/>
	</g>
	<g>
		<defs>
			<path id="XMLID_302_" d="M291.8,347.1l2.1,46.3c0,0-4.3,3.1-12.1,0.7L291.8,347.1z"/>
		</defs>
		<use xlink:href="#XMLID_302_"  style="overflow:visible;fill:#FFFFFF;"/>
		<clipPath id="XMLID_2_">
			<use xlink:href="#XMLID_302_"  style="overflow:visible;"/>
		</clipPath>
		<path class="st13" d="M286.7,396.9c0,0,4.5-28,4.7-30s0.7-2.2,1.7-5.8s3.4-12.8,0.9-15.9c-2.5-3.1-5.3-9.7-7-1.2
			c-1.7,8.4-3,10.3-4.1,21.1c-1.1,10.8-0.9,13-1.2,18.6c-0.2,5.6-1.5,9.9,0,11.7C283.3,397,286.7,396.9,286.7,396.9z"/>
	</g>
	<g>
		<defs>
			<path id="SVGID_4_" d="M251,405.8c0,0-16.4,77.3-32.9,96c0,0,6.5,16.7,31.2,13.7c0,0,19.9-45.8,18.3-90.8L251,405.8z"/>
		</defs>
		<use xlink:href="#SVGID_4_"  style="overflow:visible;fill:#0542BF;"/>
		<clipPath id="SVGID_5_">
			<use xlink:href="#SVGID_4_"  style="overflow:visible;"/>
		</clipPath>
		<path class="st14" d="M227.6,473.9c0,0,27,1.3,27,40.5l6.8-13.8l8.2-29.2c0,0-0.3-13.7,1.3-19.6c1.6-5.9,5.3-14.1,5.2-21.9
			c-0.2-7.8-1.7-28.2-5.5-29.6c-3.7-1.4-27,5.5-27,5.5l-10.2,44.4L227.6,473.9z"/>
	</g>
	<g>
		<defs>
			<path id="SVGID_6_" d="M279.8,302c0,0,13.9,2,17.4,7.3c3.6,5.2,11.1,21.8,15.5,21.9c4.5,0.1,6.5-2.1,6.5-2.1l6.5-3.1l5,11.2
				c0,0-15.9,11.9-22.5,10.8c-6.6-1.1-13.4-10.8-13.4-10.8s-12.8,57.8-11.6,80.1c1.2,22.4-10.5,53.4-10.5,53.4s-33.3,9.2-54.4-22.9
				c0,0,17.4-29.4,22.7-45.6c5.3-16.1,14.8-27.7,16.8-35.8c2-8.1,1.8-19.1,1.8-19.1l1.1-29.1L279.8,302z"/>
		</defs>
		<use xlink:href="#SVGID_6_"  style="overflow:visible;fill:#FFAB00;"/>
		<clipPath id="SVGID_7_">
			<use xlink:href="#SVGID_6_"  style="overflow:visible;"/>
		</clipPath>
		<path class="st15" d="M256.4,362.4c0.5-0.2,10.3-1.4,10.6-14.5c0.3-13.1,1-18.9,8.9-24.1c7.9-5.2,11.4-17.3,23.9-13
			s-0.5-9.5-0.5-9.5l-25.8-3.2l-11.6,12.4l-17.2,25.8l4.8,21.2L256.4,362.4z"/>
		<path class="st15" d="M295,339.8c0-0.2-0.2-2.6-0.2-2.6s6.3,7.5,11.5,7.7c5.2,0.2,13-2.4,14-5.6c1-3.2,0.8-6.5,0.8-6.5l4.2,6.5
			c0,0-0.9,5.8-1.3,5.8c-0.4,0-2.5,1.4-4.6,1.9c-2.2,0.6-5.3,2.2-6.9,2.6c-1.6,0.4-7.6,1-8.8,0.6c-1.2-0.4-2-0.8-2.8-1.3
			s-1.7-0.3-2.2-1.5c-0.5-1.1-2.4-5.9-2.7-6.6C295.8,340.1,295,339.8,295,339.8z"/>
		<path class="st15" d="M231.5,465.1c0,0,21.7-4.7,29.9-25c8.2-20.3,4-38.4,13.1-60.1c9.1-21.7,19.9-50.9,18.8-57.8
			c0,0,3.1,7.3,1.7,16.9c-1.4,9.5-6.1,49-6.1,49l-2.7,51.7l-10.1,33.1l-23.7,2.3L231.5,465.1z"/>
	</g>
	<g>
		
			<rect x="22.3" y="183.6" transform="matrix(-1 -1.224647e-16 1.224647e-16 -1 182.0485 531.0261)" class="st16" width="137.4" height="163.9"/>
		
			<rect x="16.1" y="183.6" transform="matrix(-1 -1.224647e-16 1.224647e-16 -1 172.8263 531.0261)" class="st17" width="140.7" height="163.9"/>
		
			<rect x="22.3" y="347.5" transform="matrix(-1 -1.224647e-16 1.224647e-16 -1 182.0485 706.6163)" class="st16" width="137.4" height="11.7"/>
		
			<rect x="5.6" y="347.5" transform="matrix(-1 -1.224647e-16 1.224647e-16 -1 151.8848 706.6163)" class="st17" width="140.7" height="11.7"/>
		
			<rect x="13.3" y="203.9" transform="matrix(-1.836970e-16 1 -1 -1.836970e-16 351.9264 179.0999)" class="st18" width="146.3" height="123.1"/>
		<polygon class="st8" points="132.9,338.7 81.2,192.4 56.8,192.4 108.5,338.7 		"/>
		<path class="st19" d="M143.9,289c0.3,0,0.6-0.3,0.6-0.6v-90.3c0-0.3-0.3-0.6-0.6-0.6c-0.3,0-0.6,0.3-0.6,0.6v90.3
			C143.3,288.7,143.6,289,143.9,289z"/>
		<polygon class="st8" points="103.2,338.7 51.6,192.4 42.1,192.4 93.7,338.7 		"/>
		
			<rect x="-47.7" y="265" transform="matrix(-1.836970e-16 1 -1 -1.836970e-16 290.9211 240.1052)" class="st16" width="146.3" height="1.1"/>
		<polygon class="st16" points="14,203.6 151.3,203.6 152.2,195.8 14.8,195.8 		"/>
		<polygon class="st16" points="14,209.4 151.3,209.4 152.2,201.5 14.8,201.5 		"/>
		<polygon class="st16" points="14,216.2 151.3,216.2 152.2,208.4 14.8,208.4 		"/>
		<polygon class="st16" points="14,223.9 151.3,223.9 152.2,216.1 14.8,216.1 		"/>
		<polygon class="st16" points="14,233.1 151.3,233.1 152.2,225.2 14.8,225.2 		"/>
		<polygon class="st16" points="14,243.4 151.3,243.4 152.2,235.6 14.8,235.6 		"/>
	</g>
	<g>
		<circle class="st20" cx="630.4" cy="242.1" r="41.7"/>
		
			<ellipse transform="matrix(0.2298 -0.9732 0.9732 0.2298 249.9702 800.0529)" class="st21" cx="630.4" cy="242.1" rx="38.2" ry="38.2"/>
		<path class="st22" d="M630.4,243.3c-0.3,0-0.6-0.1-0.8-0.3l-20.7-18.9c-0.5-0.4-0.5-1.2-0.1-1.7c0.4-0.5,1.2-0.5,1.7-0.1l20,18.1
			l15.3-13.4c0.5-0.4,1.3-0.4,1.7,0.1c0.4,0.5,0.4,1.3-0.1,1.7L631.2,243C631,243.2,630.7,243.3,630.4,243.3z"/>
		<rect x="629.1" y="271.4" class="st22" width="2.5" height="6.6"/>
		<rect x="629.1" y="206.3" class="st22" width="2.5" height="6.6"/>
		
			<rect x="596.6" y="238.8" transform="matrix(-1.836970e-16 1 -1 -1.836970e-16 839.9498 -355.7479)" class="st22" width="2.5" height="6.6"/>
		
			<rect x="661.7" y="238.8" transform="matrix(-1.836970e-16 1 -1 -1.836970e-16 905.0293 -420.8274)" class="st22" width="2.5" height="6.6"/>
		<line class="st23" x1="630.4" y1="242.9" x2="640.6" y2="273.3"/>
		<circle class="st20" cx="630.4" cy="242.1" r="4.4"/>
		<circle class="st24" cx="630.4" cy="242.1" r="2.6"/>
	</g>
	<g>
		<path class="st5" d="M203.7,399.7H58.8c-0.4,0-0.8-0.3-0.8-0.8v-25.6c0-0.4,0.3-0.8,0.8-0.8h144.8c0.4,0,0.8,0.3,0.8,0.8v25.6
			C204.5,399.3,204.1,399.7,203.7,399.7z"/>
		<ellipse class="st6" cx="72.7" cy="386.1" rx="3.1" ry="3.6"/>
		<ellipse class="st6" cx="85.7" cy="386.1" rx="3.1" ry="3.6"/>
		<ellipse class="st6" cx="98.8" cy="386.1" rx="3.1" ry="3.6"/>
		<path class="st6" d="M170,393h-3.3c-0.1,0-0.1-0.1-0.1-0.1v-13.6c0-0.1,0.1-0.1,0.1-0.1h3.3c0.1,0,0.1,0.1,0.1,0.1v13.6
			C170.1,392.9,170,393,170,393z"/>
		<path class="st6" d="M175.8,393h-3.3c-0.1,0-0.1-0.1-0.1-0.1v-13.6c0-0.1,0.1-0.1,0.1-0.1h3.3c0.1,0,0.1,0.1,0.1,0.1v13.6
			C176,392.9,175.9,393,175.8,393z"/>
		<path class="st6" d="M181.7,393h-3.3c-0.1,0-0.1-0.1-0.1-0.1v-13.6c0-0.1,0.1-0.1,0.1-0.1h3.3c0.1,0,0.1,0.1,0.1,0.1v13.6
			C181.9,392.9,181.8,393,181.7,393z"/>
		<path class="st6" d="M187.6,393h-3.3c-0.1,0-0.1-0.1-0.1-0.1v-13.6c0-0.1,0.1-0.1,0.1-0.1h3.3c0.1,0,0.1,0.1,0.1,0.1v13.6
			C187.8,392.9,187.7,393,187.6,393z"/>
		<rect x="63.8" y="399.7" class="st10" width="134.7" height="4.9"/>
		<path class="st5" d="M203.7,431.7H58.8c-0.4,0-0.8-0.3-0.8-0.8v-25.6c0-0.4,0.3-0.8,0.8-0.8h144.8c0.4,0,0.8,0.3,0.8,0.8V431
			C204.5,431.4,204.1,431.7,203.7,431.7z"/>
		<ellipse class="st6" cx="72.7" cy="418.1" rx="3.1" ry="3.6"/>
		<ellipse class="st6" cx="85.7" cy="418.1" rx="3.1" ry="3.6"/>
		<ellipse class="st6" cx="98.8" cy="418.1" rx="3.1" ry="3.6"/>
		<path class="st6" d="M170,425h-3.3c-0.1,0-0.1-0.1-0.1-0.1v-13.6c0-0.1,0.1-0.1,0.1-0.1h3.3c0.1,0,0.1,0.1,0.1,0.1v13.6
			C170.1,425,170,425,170,425z"/>
		<path class="st6" d="M175.8,425h-3.3c-0.1,0-0.1-0.1-0.1-0.1v-13.6c0-0.1,0.1-0.1,0.1-0.1h3.3c0.1,0,0.1,0.1,0.1,0.1v13.6
			C176,425,175.9,425,175.8,425z"/>
		<path class="st6" d="M181.7,425h-3.3c-0.1,0-0.1-0.1-0.1-0.1v-13.6c0-0.1,0.1-0.1,0.1-0.1h3.3c0.1,0,0.1,0.1,0.1,0.1v13.6
			C181.9,425,181.8,425,181.7,425z"/>
		<path class="st6" d="M187.6,425h-3.3c-0.1,0-0.1-0.1-0.1-0.1v-13.6c0-0.1,0.1-0.1,0.1-0.1h3.3c0.1,0,0.1,0.1,0.1,0.1v13.6
			C187.8,425,187.7,425,187.6,425z"/>
		<rect x="63.8" y="431.7" class="st10" width="134.7" height="4.9"/>
		<path class="st5" d="M203.7,463.8H58.8c-0.4,0-0.8-0.3-0.8-0.8v-25.6c0-0.4,0.3-0.8,0.8-0.8h144.8c0.4,0,0.8,0.3,0.8,0.8V463
			C204.5,463.4,204.1,463.8,203.7,463.8z"/>
		<ellipse class="st6" cx="72.7" cy="450.2" rx="3.1" ry="3.6"/>
		<ellipse class="st6" cx="85.7" cy="450.2" rx="3.1" ry="3.6"/>
		<ellipse class="st6" cx="98.8" cy="450.2" rx="3.1" ry="3.6"/>
		<path class="st6" d="M170,457.1h-3.3c-0.1,0-0.1-0.1-0.1-0.1v-13.6c0-0.1,0.1-0.1,0.1-0.1h3.3c0.1,0,0.1,0.1,0.1,0.1V457
			C170.1,457,170,457.1,170,457.1z"/>
		<path class="st6" d="M175.8,457.1h-3.3c-0.1,0-0.1-0.1-0.1-0.1v-13.6c0-0.1,0.1-0.1,0.1-0.1h3.3c0.1,0,0.1,0.1,0.1,0.1V457
			C176,457,175.9,457.1,175.8,457.1z"/>
		<path class="st6" d="M181.7,457.1h-3.3c-0.1,0-0.1-0.1-0.1-0.1v-13.6c0-0.1,0.1-0.1,0.1-0.1h3.3c0.1,0,0.1,0.1,0.1,0.1V457
			C181.9,457,181.8,457.1,181.7,457.1z"/>
		<path class="st6" d="M187.6,457.1h-3.3c-0.1,0-0.1-0.1-0.1-0.1v-13.6c0-0.1,0.1-0.1,0.1-0.1h3.3c0.1,0,0.1,0.1,0.1,0.1V457
			C187.8,457,187.7,457.1,187.6,457.1z"/>
		<rect x="63.8" y="463.8" class="st10" width="134.7" height="4.9"/>
		<path class="st5" d="M203.7,495.9H58.8c-0.4,0-0.8-0.3-0.8-0.8v-25.6c0-0.4,0.3-0.8,0.8-0.8h144.8c0.4,0,0.8,0.3,0.8,0.8v25.6
			C204.5,495.5,204.1,495.9,203.7,495.9z"/>
		<ellipse class="st6" cx="72.7" cy="482.3" rx="3.1" ry="3.6"/>
		<ellipse class="st6" cx="85.7" cy="482.3" rx="3.1" ry="3.6"/>
		<ellipse class="st6" cx="98.8" cy="482.3" rx="3.1" ry="3.6"/>
		<path class="st6" d="M170,489.2h-3.3c-0.1,0-0.1-0.1-0.1-0.1v-13.6c0-0.1,0.1-0.1,0.1-0.1h3.3c0.1,0,0.1,0.1,0.1,0.1V489
			C170.1,489.1,170,489.2,170,489.2z"/>
		<path class="st6" d="M175.8,489.2h-3.3c-0.1,0-0.1-0.1-0.1-0.1v-13.6c0-0.1,0.1-0.1,0.1-0.1h3.3c0.1,0,0.1,0.1,0.1,0.1V489
			C176,489.1,175.9,489.2,175.8,489.2z"/>
		<path class="st6" d="M181.7,489.2h-3.3c-0.1,0-0.1-0.1-0.1-0.1v-13.6c0-0.1,0.1-0.1,0.1-0.1h3.3c0.1,0,0.1,0.1,0.1,0.1V489
			C181.9,489.1,181.8,489.2,181.7,489.2z"/>
		<path class="st6" d="M187.6,489.2h-3.3c-0.1,0-0.1-0.1-0.1-0.1v-13.6c0-0.1,0.1-0.1,0.1-0.1h3.3c0.1,0,0.1,0.1,0.1,0.1V489
			C187.8,489.1,187.7,489.2,187.6,489.2z"/>
		<rect x="63.8" y="495.9" class="st10" width="134.7" height="4.9"/>
		<path class="st5" d="M203.7,527.9H58.8c-0.4,0-0.8-0.3-0.8-0.8v-25.6c0-0.4,0.3-0.8,0.8-0.8h144.8c0.4,0,0.8,0.3,0.8,0.8v25.6
			C204.5,527.6,204.1,527.9,203.7,527.9z"/>
		<ellipse class="st6" cx="72.7" cy="514.3" rx="3.1" ry="3.6"/>
		<ellipse class="st6" cx="85.7" cy="514.3" rx="3.1" ry="3.6"/>
		<ellipse class="st6" cx="98.8" cy="514.3" rx="3.1" ry="3.6"/>
		<path class="st6" d="M170,521.2h-3.3c-0.1,0-0.1-0.1-0.1-0.1v-13.6c0-0.1,0.1-0.1,0.1-0.1h3.3c0.1,0,0.1,0.1,0.1,0.1v13.6
			C170.1,521.2,170,521.2,170,521.2z"/>
		<path class="st6" d="M175.8,521.2h-3.3c-0.1,0-0.1-0.1-0.1-0.1v-13.6c0-0.1,0.1-0.1,0.1-0.1h3.3c0.1,0,0.1,0.1,0.1,0.1v13.6
			C176,521.2,175.9,521.2,175.8,521.2z"/>
		<path class="st6" d="M181.7,521.2h-3.3c-0.1,0-0.1-0.1-0.1-0.1v-13.6c0-0.1,0.1-0.1,0.1-0.1h3.3c0.1,0,0.1,0.1,0.1,0.1v13.6
			C181.9,521.2,181.8,521.2,181.7,521.2z"/>
		<path class="st6" d="M187.6,521.2h-3.3c-0.1,0-0.1-0.1-0.1-0.1v-13.6c0-0.1,0.1-0.1,0.1-0.1h3.3c0.1,0,0.1,0.1,0.1,0.1v13.6
			C187.8,521.2,187.7,521.2,187.6,521.2z"/>
		<rect x="63.8" y="527.9" class="st10" width="134.7" height="4.9"/>
	</g>
	<path class="st25" d="M585.6,336c0,0-18.3,38.1-22,41.2c-3.7,3.1-12.2,2.8-15.1,8c-3,5.2,4.8,10.8,11.6,7.2s12.6-12,12.6-12
		l16.7-26.2v-15.8L585.6,336z"/>
	<path class="st10" d="M648.3,500.5c0,0,3.2,3.5,6,5.9c2.9,2.4,6.8,2.5,8.6,5.7c1.8,3.3-5.1,11.5-9.4,17.9s-10,10.4-13.7,6
		c-3.7-4.5,6.1-12.4,3.9-20.8c-2.2-8.3-4.1-8-4.1-8L648.3,500.5z"/>
	<path class="st10" d="M603.8,510c0,0-0.1,4.5,0.3,8.1c0.4,3.6,3.1,6.2,2.2,9.7c-0.9,3.5-11.1,4.6-18.3,6.2s-13.8,0.7-13.4-4.9
		s12.4-4.6,16.3-11.9c3.9-7.3,2.4-8.2,2.4-8.2L603.8,510z"/>
	<g>
		<defs>
			<path id="SVGID_8_" d="M584.6,383.8c0,0-1.8,47,0,70.7c1.8,23.7,5.3,57.8,5.3,57.8h16.4c0,0-1.4-52.5,3.3-71.8
				c4.7-19.4,9.4-51.7,8.1-56.6H584.6z"/>
		</defs>
		<use xlink:href="#SVGID_8_"  style="overflow:visible;fill:#1E2889;"/>
		<clipPath id="SVGID_9_">
			<use xlink:href="#SVGID_8_"  style="overflow:visible;"/>
		</clipPath>
		<path class="st26" d="M595.9,381.8c0,0,3.1,68.6,14.8,93c0,0,5.8-43.1,6-43.7c0.2-0.6,7.5-33,7.5-33l-9.6-18.2L595.9,381.8z"/>
	</g>
	<g>
		<defs>
			<path id="SVGID_10_" d="M600.2,386.3c0,0,4.3,40.3,9.3,56.6s26.8,66,26.8,66s10-0.4,16.3-7.2c0,0-17.6-46.1-19.2-61.2
				c-1.5-15,0.1-49.7-7.5-60.5L600.2,386.3z"/>
		</defs>
		<use xlink:href="#SVGID_10_"  style="overflow:visible;fill:#1E2889;"/>
		<clipPath id="SVGID_11_">
			<use xlink:href="#SVGID_10_"  style="overflow:visible;"/>
		</clipPath>
		<path class="st27" d="M615.3,378.3c0,0,3.7,50.7,9,63.8c5.2,13.1,24,58.4,24,58.4l8.5-3.8L646.5,469c0,0-4.8-67.9-5.4-70.1
			c-0.6-2.2-10.2-20.6-10.2-20.6H615.3z"/>
	</g>
	<path class="st28" d="M587.6,503.8H608l-1.8,8.4c0,0-7.6,2.3-16.4,0L587.6,503.8z"/>
	<path class="st28" d="M631.6,502.1l19.6-7.7l1.3,7.3c0,0-5.4,8.4-16.3,7.2L631.6,502.1z"/>
	<g>
		<defs>
			<path id="SVGID_12_" d="M585.1,278.9c0,0-2.3,1.2-2.8,2c-2.3,3.4-6.4,10.8-2.9,32.7c3.6,21.9,7.8,26.2,6.9,41.2
				c-1,15-2.6,30.6-2.6,30.6s18,15.3,45.3-2.4c0,0-5.8-42.5-8.1-57.7c-2.3-15.2-9.7-46.8-25.9-46.7L585.1,278.9z"/>
		</defs>
		<use xlink:href="#SVGID_12_"  style="overflow:visible;fill:#66AFFF;"/>
		<clipPath id="SVGID_13_">
			<use xlink:href="#SVGID_12_"  style="overflow:visible;"/>
		</clipPath>
		<path class="st29" d="M582.1,343.3c0,0,7.8,0.9,12-7.3c4.2-8.2,14.8-35.1,12.4-43.9c3.3,9.2,3,27.6,1.5,35.2
			c-1.5,7.5-10.1,25.6-23,24.8L582.1,343.3z"/>
	</g>
	<g>
		<rect x="435.4" y="372.2" class="st30" width="3.2" height="22.9"/>
		<rect x="482.3" y="372.2" class="st30" width="3.2" height="22.9"/>
		<rect x="431.2" y="371.8" class="st31" width="58.8" height="4.2"/>
	</g>
	<g>
		<g>
			<rect x="518.3" y="372.5" class="st32" width="18.1" height="4.9"/>
			<path class="st24" d="M546.5,375.3c0,0,10.9-2.8,10.9-14.8c0-20.6-7.6-20.6-7.6-20.6h-15.3v-10.7h15.3c0,0,15.9,2.1,15.9,31.4
				c0,22.7-19.1,24.5-19.1,24.5h-36.8v-9.9H546.5z"/>
			<g>
				<polygon class="st33" points="536,344.3 550,313.6 540.2,309.2 526.2,339.9 				"/>
				
					<rect x="524" y="345.9" transform="matrix(0.4095 -0.9123 0.9123 0.4095 -6.1283 687.6707)" class="st33" width="8.4" height="5.4"/>
				
					<rect x="542.1" y="306" transform="matrix(0.4096 -0.9123 0.9123 0.4096 37.7678 681.1206)" class="st32" width="5.9" height="10.7"/>
				<polygon class="st34" points="531.1,348.5 536,344.3 526.2,339.9 526.3,346.3 				"/>
			</g>
			<path class="st35" d="M509.7,372.9v-2.6c0-1.4,1.2-2.6,2.6-2.6h30.1c1.4,0,2.6,1.2,2.6,2.6v2.6H509.7z"/>
			<path class="st36" d="M498.8,395.3v-3.2c0-1.8,1.4-3.2,3.2-3.2h59.4c1.8,0,3.2,1.4,3.2,3.2v3.2H498.8z"/>
			<g>
				<path class="st34" d="M523.3,392.1c2.2,0,5.8,0,7.9,0h4.2c2.2,0,3.1-1.3,2-2.8l-2.1-3c-1.1-1.5-2.9-4.1-4-5.6l-2.1-3
					c-1.1-1.5-2.9-1.5-4,0l-2.1,3c-1.1,1.5-2.9,4.1-4,5.6l-2.1,3c-1.1,1.5-0.2,2.8,2,2.8H523.3z"/>
				<g>
					<g>
						<path class="st32" d="M525.6,380c0,1,0.8,1.7,1.7,1.7c1,0,1.7-0.8,1.7-1.7c0-1-0.8-1.7-1.7-1.7
							C526.4,378.3,525.6,379.1,525.6,380z"/>
						<path class="st32" d="M532.5,389.5c0,1,0.8,1.7,1.7,1.7c1,0,1.7-0.8,1.7-1.7c0-1-0.8-1.7-1.7-1.7
							C533.3,387.8,532.5,388.5,532.5,389.5z"/>
						<path class="st32" d="M518.8,389.5c0,1,0.8,1.7,1.7,1.7c1,0,1.7-0.8,1.7-1.7c0-1-0.8-1.7-1.7-1.7
							C519.6,387.8,518.8,388.5,518.8,389.5z"/>
					</g>
				</g>
			</g>
		</g>
		<path class="st35" d="M542.7,330c0,2.5,2.1,4.6,4.6,4.6s4.6-2.1,4.6-4.6c0-2.5-2.1-4.6-4.6-4.6S542.7,327.4,542.7,330z"/>
		<path class="st32" d="M544.6,330c0,1.5,1.2,2.8,2.8,2.8c1.5,0,2.8-1.2,2.8-2.8c0-1.5-1.2-2.8-2.8-2.8
			C545.8,327.2,544.6,328.5,544.6,330z"/>
	</g>
	<g>
		<g>
			<rect x="441.2" y="361.1" class="st33" width="7.3" height="25.2"/>
			<rect x="451.4" y="361.1" class="st33" width="7.3" height="25.2"/>
			<rect x="461.6" y="361.1" class="st33" width="7.3" height="25.2"/>
			<rect x="471.8" y="361.1" class="st33" width="7.3" height="25.2"/>
		</g>
	</g>
	<g>
		<path class="st6" d="M235.9,190c0-3.8,1-6.4,3.1-7.7c3.2-2,8.3-0.2,14.5,4.9c5.9,5,12.2,12.6,17.6,21.4
			c5.4,8.8,9.4,17.8,11.2,25.3c1.9,7.8,1.1,13.2-2.1,15.2c-3.2,2-8.3,0.2-14.5-4.9c-5.9-5-12.2-12.6-17.6-21.4
			c-5.4-8.8-9.4-17.8-11.2-25.3C236.2,194.7,235.9,192.1,235.9,190z M281.7,241.5c0-2-0.3-4.4-1-7.2c-1.8-7.4-5.7-16.2-11-24.8
			c-5.4-8.7-11.5-16.1-17.3-21c-5.5-4.6-10.1-6.4-12.6-4.8c-2.5,1.6-3,6.4-1.3,13.4c1.8,7.4,5.7,16.2,11,24.8s11.5,16.1,17.3,21
			c5.5,4.6,10.1,6.4,12.6,4.8l0,0C280.9,246.8,281.7,244.6,281.7,241.5z"/>
		<path class="st6" d="M220.3,215.7c0-3.8,4.2-7.2,11.8-9.7c7.3-2.4,17.1-3.8,27.5-3.8c10.4,0,20.1,1.3,27.5,3.8
			c7.6,2.5,11.8,6,11.8,9.7c0,3.8-4.2,7.2-11.8,9.7c-7.3,2.4-17.1,3.8-27.5,3.8c-10.4,0-20.1-1.3-27.5-3.8
			C224.5,222.9,220.3,219.5,220.3,215.7z M297.3,215.7c0-3-3.9-5.9-10.7-8.2c-7.2-2.4-16.8-3.7-26.9-3.7c-10.2,0-19.8,1.3-26.9,3.7
			c-6.8,2.2-10.7,5.2-10.7,8.2c0,3,3.9,5.9,10.7,8.2c7.2,2.4,16.8,3.7,26.9,3.7c10.2,0,19.8-1.3,26.9-3.7
			C293.4,221.7,297.3,218.7,297.3,215.7z"/>
		<path class="st6" d="M235.8,241.5c0-2.2,0.3-4.7,1-7.5c1.8-7.5,5.8-16.5,11.3-25.3c5.5-8.8,11.7-16.4,17.7-21.3
			c6.2-5.2,11.3-6.9,14.5-4.9c3.2,2,3.9,7.4,2,15.2c-1.8,7.5-5.8,16.5-11.3,25.3c-5.5,8.8-11.7,16.4-17.7,21.3
			c-6.2,5.2-11.3,6.9-14.5,4.9C236.9,247.8,235.8,245.2,235.8,241.5z M279.9,183.1l-0.4,0.7c-2.5-1.6-7.1,0.2-12.6,4.8
			c-5.8,4.9-12,12.3-17.3,21c-5.4,8.7-9.3,17.5-11.1,24.8c-1.7,7-1.2,11.8,1.3,13.4c2.5,1.6,7.1-0.2,12.6-4.8
			c5.8-4.9,12-12.3,17.3-21c5.4-8.7,9.3-17.5,11.1-24.8c1.7-7,1.2-11.8-1.3-13.4L279.9,183.1z"/>
		<circle class="st1" cx="259.6" cy="215.7" r="4.5"/>
	</g>
	<g>
		<path class="st8" d="M487.5,245.6H335.8c-0.7,0-1.3-0.6-1.3-1.3V181c0-0.7,0.6-1.3,1.3-1.3h151.7c0.7,0,1.3,0.6,1.3,1.3v63.3
			C488.8,245.1,488.2,245.6,487.5,245.6z"/>
		<path class="st21" d="M484.7,215v25c0,1.1-0.9,2-2,2H340.1c-1.1,0-2-0.9-2-2v-55c13.2,0,19.7,4.9,23.6,11.4
			c0.3,0.4,0.5,0.8,0.7,1.3c6.5,12.3,4.5,29.2,18.8,29.2c0.5,0,1-0.1,1.5-0.2c0.3-0.1,0.6-0.2,0.9-0.3c9.6-4.1,8.1-32.8,25.2-32.6
			c3.7,0,6.4,1.4,8.5,3.7c0.2,0.2,0.4,0.4,0.6,0.7c7.7,9,7.8,29,19.5,32.7c4.2,1.3,8-0.5,11.7-3.4c0.2-0.2,0.5-0.4,0.7-0.6
			c7.8-6.5,15.6-17.6,27.7-14.9c0.3,0.1,0.7,0.2,1.1,0.3C480.5,212.8,482.5,213.7,484.7,215z"/>
		<path class="st1" d="M484.7,210c-2.6,0-4.5,0.9-6.1,2.3c-2.9,2.6-4.5,7-6,11.3c-2.3,6.4-4.6,13.1-11.6,13.1c-0.4,0-0.8,0-1.1-0.1
			c-4.5-0.4-7.8-4.1-10.7-9.1c-1.8-3.1-3.5-6.7-5.2-10.5c-4.8-10.5-9.7-21.3-18.8-21.6c-0.1,0-0.2,0-0.3,0c-2.8,0-5,1-6.9,2.8
			c-3.9,3.5-6.3,9.8-8.7,16c-3.5,9.2-7.2,18.6-15.5,18.8c-5.9,0.1-8.6-2.1-11.1-6.4c-0.9-1.7-1.8-3.6-2.9-5.8
			c-1.9-4.1-4.2-9.2-8.1-15.1c-2.6-4-5.9-6.5-9.4-8c-9.5-4.2-20.8-1.1-24.3,0v-0.9c3.8-1.2,14.2-3.9,23.6-0.4
			c4.1,1.5,7.9,4.3,10.9,8.8c3.9,6,6.2,11.1,8.1,15.2c1.1,2.3,2,4.3,2.9,5.9c2.3,3.9,4.8,5.9,10.2,5.8c7.7-0.2,11.1-9,14.7-18.3
			c2.4-6.3,4.9-12.8,8.9-16.4c2.1-1.9,4.7-3.1,7.8-3c9.7,0.3,14.7,11.4,19.6,22.1c1.7,3.6,3.3,7.2,5.1,10.3
			c2.8,4.9,5.9,8.4,10.1,8.8c7.1,0.7,9.4-5.7,11.8-12.4c1.5-4.2,3-8.5,5.8-11.2c1.8-1.8,4-2.9,7.1-2.9L484.7,210z"/>
	</g>
	<g>
		<g>
			<path class="st37" d="M492.2,283.1c-3.7-16.2-18.2-28.4-35.5-28.4v36.4L492.2,283.1z"/>
			<path class="st8" d="M456.7,291.2v-36.4c-20.1,0-36.4,16.3-36.4,36.4c0,20.1,16.3,36.4,36.4,36.4s36.4-16.3,36.4-36.4
				c0-2.8-0.3-5.5-0.9-8.1L456.7,291.2z"/>
		</g>
		<circle class="st21" cx="456.7" cy="291.8" r="27.8"/>
	</g>
	<path class="st25" d="M285.2,293.7c0,0-2.1,5.4-0.8,9.4c0,0-3,2.2-8.5,0v-8.8l6.9-2L285.2,293.7z"/>
	<g>
		<defs>
			<path id="SVGID_14_" d="M297.1,274.9c0,0,1.6,22.3-4.5,23.8c-6.1,1.5-12-4.6-12-4.6l0.7-15.4L297.1,274.9z"/>
		</defs>
		<use xlink:href="#SVGID_14_"  style="overflow:visible;fill:#FFACA6;"/>
		<clipPath id="SVGID_15_">
			<use xlink:href="#SVGID_14_"  style="overflow:visible;"/>
		</clipPath>
		<path class="st38" d="M278.6,296.6c0,0,8.6-1.5,9.4-5c0.8-3.5,0.8-6.4,4.8-7.1c4-0.8,6.1-1.9,6.1-1.9l-0.9-5.6l-14.4,0.2l-2.1,7.5
			L278.6,296.6z"/>
	</g>
	<g>
		<defs>
			<path id="SVGID_16_" d="M326.8,326c0,0,14.5-8.2,19.9-12.7c5.5-4.5,11.4-10.2,12.5-8.8c1,1.3-5.9,8-5.9,8s5.2,1.7,3.3,6.8
				c-1.9,5.1-5.8,4.5-12.4,6.7c-6.6,2.2-13.6,9.5-13.6,9.5L326.8,326z"/>
		</defs>
		<use xlink:href="#SVGID_16_"  style="overflow:visible;fill:#FFACA6;"/>
		<clipPath id="SVGID_17_">
			<use xlink:href="#SVGID_16_"  style="overflow:visible;"/>
		</clipPath>
		<path class="st39" d="M328.5,323.8c0,0,1.3,4.8,4.7,4.7s9.3-3.1,12.7-3c3.4,0.1,13.5-5.4,7.3-12.9c-6.2-7.5,0,0,0,0l5.2,1.2
			l0.4,9.4c0,0-6.9,4.8-7.6,5s-8,2.6-11,3.6s-6.3,3.4-7.9,4.4s-0.9,2.2-3.7,0.5s-4.8-3.9-4.8-3.9l-0.1-6.5L328.5,323.8z"/>
	</g>
	<g>
		<defs>
			<path id="SVGID_18_" d="M291.2,262.2c0,0,5.3-0.5,7.9,4.4s1,12-1.6,12.9c-2.6,0.8-10.1,2.2-10.5,8c-0.4,5.8-0.8,6.3-4.9,9
				c-4.2,2.8,1.7,9.4-4,16.6c-5.7,7.2-17.3,13-15.1,26.5c2.2,13.5-2,15.9-5.2,18.9c-6.5,5.9-23.3,13.2-28.3-12.4
				c0,0,0.6-11.2,5.6-16.5c5.1-5.3,6.1-5,6.6-14.2c0.5-9.2,5.5-7.5,9-13.9s4.9-8.8,7.2-25.3c2.3-16.5,16.4-19.5,21.5-19
				C284.3,257.9,288.6,259.2,291.2,262.2z"/>
		</defs>
		<use xlink:href="#SVGID_18_"  style="overflow:visible;fill:#1E2889;"/>
		<clipPath id="SVGID_19_">
			<use xlink:href="#SVGID_18_"  style="overflow:visible;"/>
		</clipPath>
		<path class="st40" d="M235.1,361.1c0,0,11.4-3.6,14.1-17.2c2.7-13.6,6-21,13.5-27.3s4.5-16.6,7.8-22.1c3.3-5.5,2.4-16.3,13.1-17.6
			c10.8-1.3,17.6-7.6,16.4-11.3l3.7,10.7l-3.7,13.3c0,0-8.7,8.4-10.9,14.7c-2.2,6.3-9.4,24.9-13,31.9c-3.6,7-6.9,21.7-7,23.7
			c-0.2,2-6.5,5.1-12,6c-5.6,0.9-20.8,2-21.7,1.1C234.3,365.9,235.1,361.1,235.1,361.1z"/>
	</g>
	<path class="st33" d="M317.8,328.8c0,0,6.9,9.8,6.1,15.1l8.7-5.3c0,0,2.4-6.9-6.8-13.7L317.8,328.8z"/>
	<g>
		<defs>
			<path id="SVGID_20_" d="M572.2,251.7c0,0-6.3,0.1-7.5-7.8c-1.2-7.9,4.9-8.7,7.5-10c2.7-1.4,3.1-4.4,7.9-5
				c4.9-0.6,6.6,2.2,10.7,2.3s8.9-1,11.1,4.3c2.2,5.3,5.1,6.5,5.5,13.6c0.6,10.3-4.6,7.5-6.2,13.9c-1.6,6.4-5.6,7.5-9.4,5.6
				C588.1,266.6,572.2,251.7,572.2,251.7z"/>
		</defs>
		<use xlink:href="#SVGID_20_"  style="overflow:visible;fill:#191E56;"/>
		<clipPath id="SVGID_21_">
			<use xlink:href="#SVGID_20_"  style="overflow:visible;"/>
		</clipPath>
		<path class="st41" d="M562,240.9c0,0,2.4,2.7,10,1.3c7.7-1.4,12-1.1,16.7,3.4c4.7,4.5,10.1,14.4,17.4,12.2l-3.6,9.3l-4.8,5.3h-5.4
			l-14.4-2.1l-12.5-17.1l-3.6-5.8L562,240.9z"/>
	</g>
	<g>
		<defs>
			<path id="SVGID_22_" d="M582.5,267.3c0,0,3.2,7.3,1.8,13.7c0,0,5,3.6,11.8-2.3c0,0-3.5-5-3.2-13.8l-6.8-2.5L582.5,267.3z"/>
		</defs>
		<use xlink:href="#SVGID_22_"  style="overflow:visible;fill:#FFACA6;"/>
		<clipPath id="SVGID_23_">
			<use xlink:href="#SVGID_22_"  style="overflow:visible;"/>
		</clipPath>
		<path class="st42" d="M583.7,275.2c0,0,7.9-3.2,12,0.1l-1.5-9l-0.6-3.6l-8.5-2.9l-4.7,2l2.2,5.5L583.7,275.2z"/>
	</g>
	<g>
		<defs>
			<path id="SVGID_24_" d="M572.3,247.8c0,0-2.1,28,6.9,28c9,0.1,12.3-11.2,12.3-11.2s5.3,0.4,4.5-6c-0.8-6.4-5.5-2.3-5.5-2.3
				s-3.7-1.9-5.5-6C583.3,246.3,578.2,250.4,572.3,247.8z"/>
		</defs>
		<use xlink:href="#SVGID_24_"  style="overflow:visible;fill:#FFACA6;"/>
		<clipPath id="SVGID_25_">
			<use xlink:href="#SVGID_24_"  style="overflow:visible;"/>
		</clipPath>
		<path class="st43" d="M570.2,251.7c0,0,0.8,0.8,5.8,0.5s6.1,2.5,10.1,5.5c4,3,7,4.1,10.7,1.3l-2.3-6.5l-5.2-1.6l-6.3-4.5
			l-12.4-0.2L570.2,251.7z"/>
	</g>
	<g>
		<defs>
			<path id="SVGID_26_" d="M589.4,322.5c0,0-2.3,8.6-7,10.4c-4.8,1.8-26-9.6-26-9.6s-7.8-18.1-16.3-15.8c-8.5,2.3,0.4,13.7,9.4,20.3
				c9,6.6,19.4,16.8,39.5,17.9c4.4,0,10.4-11.6,13.1-19.9L589.4,322.5z"/>
		</defs>
		<use xlink:href="#SVGID_26_"  style="overflow:visible;fill:#FFACA6;"/>
		<clipPath id="SVGID_27_">
			<use xlink:href="#SVGID_26_"  style="overflow:visible;"/>
		</clipPath>
		<path class="st44" d="M553,331.1c0,0,11.7,7.4,22.6,9.2c11,1.9,14.4,2.5,16.8-3.7c2.4-6.2,3.7-9.1,1.5-10.8l8.2-0.8l1.4,5.4
			c0,0-3.3,8.1-4.9,10.5s-7,5.6-8.9,5.8c-1.9,0.3-5.8,0.9-10.1,0.4c-4.3-0.5-15.1-2.1-15.1-2.1L553,331.1z"/>
	</g>
	<path class="st6" d="M586.8,322.5c0,0,0.5-6.1,1.7-14.5s1.5-15.8,7.3-18.6s11,0.5,12,5.9c0.9,5.4-1.1,30.9-1.1,30.9
		S593.5,331.4,586.8,322.5z"/>
	<rect x="647.4" y="337.9" class="st21" width="35.2" height="15.6"/>
	<rect x="661.7" y="353.5" class="st4" width="35.2" height="15.6"/>
	<rect x="349.3" y="432.5" class="st21" width="35.2" height="15.6"/>
	<rect x="363.5" y="448" class="st4" width="35.2" height="15.6"/>
</g>
</svg>
